# xmcd
#
# Track frame offsets:
#	150
#	18766
#	37579
#	57110
#	70302
#	83210
#	99391
#	111274
#	125247
#	146026
#
# Disc length: 2165 seconds
#
# Revision: 0
# Processed by: cddbd v1.5.2PL0 Copyright (c) Steve Scherf et al.
# Submitted via: EasyCDDAExtractor 16.0.6.1
#
DISCID=8108730a
DTITLE=Βυζ. χορ. Γ. Κακουλίδη - Τραγούδια του Πόντου-Συλλ. Τριαντ. Γεωργιάδης
DYEAR=1900
DGENRE=Παραδ. Πόντου
TTITLE0=Ο Γιάννες ο Μονόγιαννες [Τραπεζούς]
TTITLE1=Ο Ακρίτας [Σούρμενα]
TTITLE2=Τζη Τρίχας το γεφύριν [Ματσούκα]
TTITLE3=Πατώ και βουλίζω [Καρά χησάρ Σαρκή]
TTITLE4=Άφη, κόρη, τον κύρη σου [Κρώμνη]
TTITLE5=Γαμήλιον άσμα [Κρώμνη]
TTITLE6=Θύμηγμα, ενθύμημα [Κρώμνη]
TTITLE7=Ο Πορφύριν [Σούρμενα]
TTITLE8=Ακρίτας ψυχομαχών [Γαλλιάνα]
TTITLE9=Το φίλεμαν [Κρώμνη]
EXTD=
EXTT0=
EXTT1=
EXTT2=
EXTT3=
EXTT4=
EXTT5=
EXTT6=
EXTT7=
EXTT8=
EXTT9=
PLAYORDER=
